<svg viewBox="0 0 24 24" xmlns="http://www.w3.org/2000/svg" fill="white"><path fill-rule="evenodd" clip-rule="evenodd" d="M22.953 11.386c.02.14.034.288.039.444.005.157.007.31.008.46 0 1.045-.222 1.944-.666 2.698a4.7 4.7 0 0 1-.644.854V14.43a4.39 4.39 0 0 1-.277.558 4.528 4.528 0 0 1-1.803 1.735c-.76.404-1.619.606-2.578.606a5.335 5.335 0 0 1-2.067-.396 4.892 4.892 0 0 1-1.657-1.122c-.45-.463-.803-1-1.063-1.61v1.409a5.28 5.28 0 0 1-.916-1.495A5.552 5.552 0 0 1 10.935 12c0-.765.128-1.47.387-2.116a5.155 5.155 0 0 1 .923-1.513V9.78a4.998 4.998 0 0 1 2.681-2.704 5.189 5.189 0 0 1 2.06-.404c.928 0 1.736.172 2.422.517.687.344 1.24.796 1.657 1.356.278.372.486.764.625 1.174V8.192c.105.113.204.23.296.352.418.56.678 1.163.782 1.809h-3.181a1.926 1.926 0 0 0-.442-.76 2.573 2.573 0 0 0-.867-.613c-.356-.162-.782-.242-1.277-.242-.578 0-1.092.135-1.54.403-.45.27-.801.646-1.054 1.13-.253.485-.38 1.061-.38 1.729 0 .667.13 1.249.388 1.744a2.79 2.79 0 0 0 1.076 1.146c.46.27.984.404 1.572.404.547 0 1.024-.09 1.432-.267.407-.177.727-.443.96-.799.173-.264.286-.577.342-.936H16.46v-1.906h6.494zm-15.403 2l1.712 2.937V14.92l1.31 2.246H7.14l-1.796-3.375h-2.07v3.375H1V6.833h4.418c1.256 0 2.239.307 2.948.92.428.37.727.83.896 1.376V7.826c.656.608.985 1.439.985 2.495 0 1.035-.329 1.858-.985 2.47v-1.297c-.17.54-.468.997-.896 1.37-.24.21-.513.383-.816.522zm-2.067-1.531c.52 0 .923-.135 1.21-.404.287-.269.43-.635.43-1.098 0-.484-.143-.858-.43-1.122-.287-.264-.69-.396-1.21-.396H3.274v3.02h2.21z"/></svg>